# xmcd
#
# Track frame offsets:
#	150
#	13233
#	35391
#	57458
#	71393
#	93255
#	111820
#	135359
#	152694
#	170264
#	188571
#
# Disc length: 2738 seconds
#
# Revision: 1
# Processed by: cddbd v1.5.2PL0 Copyright (c) Steve Scherf et al.
# Submitted via: audiograbber 1.83.01
#
DISCID=840ab00b
DTITLE=Colin ROSS - Refried boogie
DYEAR=2002
DGENRE=Piano boogie
TTITLE0=Frustration boogie
TTITLE1=E-minus blues
TTITLE2=Rippin' Ray
TTITLE3=Refried boogie
TTITLE4=Slippin' into night
TTITLE5=Red dog shuffle
TTITLE6=Steppin'
TTITLE7=Crawdad breath
TTITLE8=Otis' blues
TTITLE9=Trouble boogie
TTITLE10=Rollem
EXTD=
EXTT0=
EXTT1=
EXTT2=
EXTT3=
EXTT4=
EXTT5=
EXTT6=
EXTT7=
EXTT8=
EXTT9=
EXTT10=
PLAYORDER=
